<?xml version="1.0" encoding="UTF-8" standalone="no"?>
<svg
   class="icon icon-tabler icon-tabler-circle-half-2"
   width="20"
   height="20"
   viewBox="0 0 20 20"
   stroke-width="2"
   stroke="currentColor"
   fill="none"
   stroke-linecap="round"
   stroke-linejoin="round"
   version="1.1"
   id="svg14"
   sodipodi:docname="circle-half-2.svg"
   inkscape:export-filename="circle-half-2-64.png"
   inkscape:export-xdpi="307.20001"
   inkscape:export-ydpi="307.20001"
   inkscape:version="1.2.2 (b0a8486541, 2022-12-01)"
   xmlns:inkscape="http://www.inkscape.org/namespaces/inkscape"
   xmlns:sodipodi="http://sodipodi.sourceforge.net/DTD/sodipodi-0.dtd"
   xmlns="http://www.w3.org/2000/svg"
   xmlns:svg="http://www.w3.org/2000/svg">
  <defs
     id="defs18" />
  <sodipodi:namedview
     id="namedview16"
     pagecolor="#ffffff"
     bordercolor="#666666"
     borderopacity="1.0"
     inkscape:showpageshadow="2"
     inkscape:pageopacity="0.0"
     inkscape:pagecheckerboard="true"
     inkscape:deskcolor="#ffffff"
     showgrid="false"
     inkscape:zoom="35.618569"
     inkscape:cx="4.5060766"
     inkscape:cy="10.752818"
     inkscape:window-width="1917"
     inkscape:window-height="1035"
     inkscape:window-x="0"
     inkscape:window-y="44"
     inkscape:window-maximized="1"
     inkscape:current-layer="svg14" />
  <circle
     style="fill:#76b6ef;stroke:#ffffff;stroke-width:0;stroke-linecap:round;stroke-linejoin:round;stroke-dasharray:none;stroke-opacity:1;fill-opacity:1"
     id="path17649"
     cx="10"
     cy="10"
     r="9.0847788" />
  <path
     stroke="none"
     d="M -2,-2 H 22 V 22 H -2 Z"
     fill="none"
     id="path2" />
  <path
     d="M 10,10 M 1,10 A 9,9 0 1 0 19,10 9,9 0 1 0 1,10"
     id="path4"
     style="stroke:#228be6;stroke-opacity:1" />
  <path
     d="M 10,1 V 19"
     id="path6"
     style="stroke:#228be6;stroke-opacity:1" />
  <path
     d="M 10,12 17,5"
     id="path8"
     style="stroke:#228be6;stroke-opacity:1" />
  <path
     d="M 10,17 18.5,8.5"
     id="path10"
     style="stroke:#228be6;stroke-opacity:1" />
  <path
     d="M 10,7 14.5,2.5"
     id="path12"
     style="stroke:#228be6;stroke-opacity:1" />
  <path
     d="M 10,10 M 1,10 A 9,9 0 1 0 19,10 9,9 0 1 0 1,10"
     id="path9536"
     style="stroke:#228be6;stroke-opacity:1" />
  <path
     d="M 10,1 V 19"
     id="path9538"
     style="stroke:#228be6;stroke-opacity:1" />
  <path
     d="M 10,12 17,5"
     id="path9540"
     style="stroke:#228be6;stroke-opacity:1" />
  <path
     d="M 10,17 18.5,8.5"
     id="path9542"
     style="stroke:#228be6;stroke-opacity:1" />
  <path
     d="M 10,7 14.5,2.5"
     id="path9544"
     style="stroke:#228be6;stroke-opacity:1" />
</svg>
